    <svg
      xmlns="http://www.w3.org/2000/svg"
      width="80"
      height="80"
      fill="none"
      viewBox="0 0 80 80"
    >
      <circle cx="40" cy="40" r="40" fill="#203631"></circle>
      <path
        fill="#fff"
        d="M49.51 39.245c-1.516-1.1-4.03-.424-6.273-.48-1.895-2.063-6.583-8.056-8.459-10.512l-.05-.043a33.476 33.476 0 00-2.243-2.56 43.825 43.825 0 004.321 1.842c.701 1.093 2.527 3.555 4.726 3.831 3.595.396 7.229-.27 10.43-1.91 0 0-4.037-2.922-7.581-3.468-2.793-.412-5.99.417-7.29.816a64.152 64.152 0 01-6.552-2.91 16.155 16.155 0 00-8.06-3.844.415.415 0 00-.417.175.368.368 0 00.018.433.385.385 0 00.266.147c3.221.473 6.102 2.192 8.623 4.544.745 1.732 1.649 4.464 1.592 6-1.264.472-5.054 2.105-6.317 5.003-2.047 4.618.852 9.364.852 9.364s4.486-2.947 6.406-6.465c1.529-2.77.632-6.546-.145-7.7.114-1.363-.449-3.322-.96-4.759a41.793 41.793 0 015.123 7.012.339.339 0 000 .209 14.715 14.715 0 010 6.079 13.881 13.881 0 00-5.42 6.183 7.772 7.772 0 00-.285 4.823 7.953 7.953 0 002.628 4.1s3.273-5.736 5.174-8.524c.834-1.27-.783-5.133-1.339-6.361.36-1.523.456-3.094.284-4.648a70.964 70.964 0 014.422 9.824c-.7 1.087-2.4 4.133-1.654 7.08.928 3.684 7.429 6.908 7.429 6.908a52.846 52.846 0 01-.43-8.136c.145-3.021-3.203-5.232-4.53-5.987a75.075 75.075 0 00-4.352-9.34c.935 1.155 1.832 1.77 2.558 2.598 0 0 3.721 5.103 6.95 7.368 2.147 1.511 8.029.547 8.029.547.246-.221-2.337-3.55-7.474-7.24z"
      ></path>
    </svg>