<svg
      xmlns="http://www.w3.org/2000/svg"
      fill="none"
      viewBox="0 0 408 127"
    >
      <path
        fill="#000"
        d="M37.697 20.945C37.697 9.078 28.788.656 18.873.656 9.663.656 0 9.296 0 21.11c0 10.993 8.657 20.18 18.873 20.18 9.915 0 18.824-9.297 18.824-20.344zM18.873 40.523c-8.455 0-10.67-5.742-10.67-19.414 0-9.953 1.209-14.492 3.725-17.117 1.711-1.804 4.026-2.57 6.895-2.57 5.687 0 8.456 2.789 9.714 7.383.654 2.297.956 6.18.956 11.812 0 11.156-1.057 15.203-4.177 17.938-1.46 1.312-3.624 1.968-6.442 1.968zM42.126 1.531v.766h4.63v37.406h-4.63v.766h31.909v-12.36h-.654c-.655 3.555-2.014 6.399-4.027 8.477-1.963 2.078-4.278 3.117-6.844 3.117h-8.456V2.297h4.63V1.53H42.126zM78.095 1.531v.766h4.63v37.406h-4.63v.766h16.559v-.766h-4.63V2.297h4.63V1.53H78.095zM95.722 1.531v.766H100L113.891 42h1.46l14.192-39.703h4.329V1.53h-9.613v.766h4.53l-10.62 29.64-10.418-29.64h4.831V1.53h-16.86zM134.812 1.531v.766h4.63v37.406h-4.63v.766h32.16V28.492h-.654c-1.56 7.219-5.888 11.211-11.123 11.211h-8.455V19.961h3.422c3.272 0 5.788 1.914 6.996 8.094h.654V11.047h-.654c-1.409 7.11-4.127 8.148-8.153 8.148h-2.265V2.297h8.204c4.177 0 7.7 2.898 9.311 8.586h.654V1.53h-30.097zM207.337 6.234c0-3.664-1.863-5.578-4.731-5.578-3.876 0-7.499 4.375-7.499 8.75 0 2.242 1.006 4.649 1.61 6.508-7.197 4.703-9.764 8.477-9.764 13.399 0 5.687 3.624 11.976 11.928 11.976 3.171 0 5.587-.656 8.355-3.281 1.661 2.406 3.271 3.281 5.536 3.281 4.63 0 6.442-3.336 6.543-7.055 0-.164-.05-.492-.151-.875h-.705c.101.274.151.657.151.93 0 1.914-.855 4.102-2.365 4.102-.856 0-1.56-.547-2.064-1.477l-2.365-4.539c1.61-2.352 2.365-6.945 2.516-11.102.302-7.546 1.51-6.89 4.228-7.601v-.766h-10.167v.766c3.976 0 5.235 1.75 5.235 7.164 0 5.523-1.259 9.242-2.215 10.664l-8.455-17.992c2.869-2.024 4.379-4.266 4.379-7.274zm-4.681 6.618c-1.56-2.899-2.617-5.688-2.617-7.602 0-2.46 1.258-3.828 3.271-3.828 2.164 0 3.372 2.297 3.372 4.922 0 2.515-1.157 4.484-4.026 6.508zm-.503 26.96c-4.782 0-9.362-11.757-9.362-16.242 0-3.117.856-4.32 4.178-7.054.1.218.805 1.859 1.107 2.515l7.549 15.914c.504 1.04.504 1.149 1.309 2.407-1.56 1.367-2.97 2.46-4.781 2.46zM267.843 2.68c-1.509 0-5.636-2.024-9.31-2.024-3.976 0-8.204 1.696-11.576 4.594-4.278 3.664-7.248 9.297-7.248 15.86 0 10.828 8.556 20.18 18.824 20.18 5.989 0 8.455-3.337 11.475-3.337.805 0 1.51.383 1.66 1.258h.906V26.688h3.272v-.766h-15.552v.765h5.184v2.68c0 8.914-2.567 11.156-6.895 11.156-4.228 0-6.845-1.367-8.506-4.484-1.51-2.844-2.164-7.11-2.164-12.852v-5.523c0-9.57 2.366-16.242 10.771-16.242 5.888 0 9.109 4.32 10.82 11.265h.755V1.531h-.855c-.353.875-.604 1.149-1.561 1.149zM306.563 10.719c0-6.016-5.033-9.352-12.482-9.352-2.416 0-5.838.164-7.65.164h-8.153v.766h4.63v37.406h-4.63v.766h16.558v-.766h-4.63V19.961h3.523c1.963 0 3.674.71 4.731 2.297 1.107 1.586 1.711 4.484 1.761 8.695.051 4.156.755 6.781 2.064 8.203 1.359 1.477 3.271 2.133 5.788 2.133 2.667 0 4.026-.383 5.888-2.57l-.503-.492c-.755.82-1.46 1.804-2.818 1.804-1.158 0-1.712-.492-2.014-1.422-.251-.984-.604-3.28-.805-6.945-.201-3.937-.604-6.07-1.308-7.328a7.308 7.308 0 00-2.819-2.844c-1.158-.71-3.573-1.367-7.046-2.023v-.274c6.291-.656 9.915-3.718 9.915-8.476zm-16.357-8.422c.855-.055 1.56-.164 2.164-.164 4.832 0 6.442 2.406 6.442 9.133 0 3.5-.554 5.25-1.711 6.398-1.007.984-2.517 1.531-5.285 1.531h-1.61V2.297z"
      ></path>
      <path
        fill="#000"
        d="M315.807 39.703h-4.278v.766h9.563v-.766h-4.479l5.586-14.656h12.079l5.838 14.656h-4.68v.766h16.91v-.766h-4.328L332.164 0h-1.359l-14.998 39.703zm12.281-30.351l5.939 14.93h-11.576l5.637-14.93zM352.99 1.531v.766h4.63v37.406h-4.63v.766h16.558v-.766h-4.63V2.297h4.63V1.53H352.99zM373.234 1.531v.766h4.63v37.406h-4.63v.766H383.3v-.766h-4.63V5.414h.1l22.648 35.055h1.359V2.297h4.631V1.53h-10.066v.766h4.63v25.266h-.101L385.112 1.53h-11.878zM220.803 90.45c-2.469-1.968-6.564-.759-10.217-.858-3.086-3.693-10.72-14.421-13.776-18.818l-.082-.077a58.586 58.586 0 00-3.652-4.583 68.031 68.031 0 007.037 3.297c1.142 1.957 4.115 6.364 7.696 6.86 5.854.707 11.773-.484 16.986-3.42 0 0-6.575-5.231-12.346-6.21-4.548-.736-9.754.748-11.873 1.462a100.031 100.031 0 01-10.669-5.21c-3.67-3.587-8.226-5.976-13.128-6.88a.62.62 0 00-.498.112.683.683 0 00-.18.2.737.737 0 00-.094.259.73.73 0 00.123.516.617.617 0 00.433.264c5.247.847 9.938 3.924 14.044 8.134 1.214 3.1 2.685 7.991 2.592 10.74-2.057.846-8.23 3.77-10.288 8.957-3.334 8.266 1.389 16.763 1.389 16.763s7.304-5.276 10.432-11.574c2.49-4.958 1.029-11.718-.236-13.784.185-2.44-.731-5.947-1.564-8.519a74.908 74.908 0 018.343 12.553.678.678 0 000 .374c.69 3.59.69 7.292 0 10.882-3.917 2.656-6.993 6.514-8.827 11.068a15.214 15.214 0 00-.464 8.633c.683 2.86 2.179 5.423 4.281 7.338 0 0 5.329-10.266 8.426-15.256 1.358-2.276-1.276-9.19-2.181-11.388.586-2.727.743-5.539.463-8.32a133.517 133.517 0 017.202 17.586c-1.142 1.946-3.91 7.398-2.696 12.674 1.513 6.595 12.099 12.366 12.099 12.366-.573-4.83-.807-9.698-.699-14.565.236-5.408-5.216-9.365-7.377-10.717a140.907 140.907 0 00-7.089-16.718c1.523 2.066 2.984 3.166 4.167 4.65 0 0 6.06 9.134 11.317 13.19 3.498 2.704 13.077.978 13.077.978.401-.396-3.807-6.353-12.171-12.96z"
      ></path>
    </svg>