<svg
      xmlns="http://www.w3.org/2000/svg"
      width="200"
      height="63"
      fill="#000"
      viewBox="0 0 200 63"
    >
     
        <path
          d="M18.479 10.267c0-5.817-4.367-9.945-9.228-9.945C4.737.322 0 4.557 0 10.348c0 5.389 4.244 9.892 9.251 9.892 4.86 0 9.228-4.557 9.228-9.972zM9.25 19.864c-4.144 0-5.23-2.815-5.23-9.516 0-4.88.593-7.104 1.826-8.391.839-.884 1.974-1.26 3.38-1.26 2.788 0 4.145 1.367 4.762 3.62.32 1.125.468 3.029.468 5.79 0 5.468-.518 7.452-2.047 8.793-.716.643-1.777.964-3.158.964zM20.65.75v.376h2.27v18.336h-2.27v.376h15.642v-6.06h-.32c-.322 1.744-.988 3.138-1.975 4.156-.962 1.019-2.097 1.528-3.355 1.528h-4.145V1.126h2.27V.75H20.65zm17.632 0v.376h2.27v18.336h-2.27v.376h8.117v-.376h-2.27V1.126h2.27V.75h-8.117zm8.64 0v.376h2.098l6.809 19.462h.716L63.5 1.126h2.123V.75H60.91v.375h2.22l-5.205 14.53-5.107-14.53h2.368V.75h-8.264zm19.162 0v.376h2.27v18.336h-2.27v.376H81.85v-5.871h-.32c-.765 3.538-2.887 5.495-5.453 5.495h-4.145V9.785h1.678c1.604 0 2.837.938 3.43 3.967h.32V5.415h-.32C76.347 8.9 75.014 9.41 73.041 9.41h-1.11V1.126h4.02c2.049 0 3.776 1.42 4.565 4.209h.32V.75H66.085zm35.552 2.306c0-1.796-.913-2.734-2.32-2.734-1.9 0-3.675 2.144-3.675 4.289 0 1.099.493 2.279.789 3.19-3.528 2.305-4.786 4.155-4.786 6.568 0 2.788 1.776 5.87 5.847 5.87 1.554 0 2.738-.32 4.095-1.608.814 1.18 1.604 1.609 2.714 1.609 2.27 0 3.158-1.636 3.207-3.459 0-.08-.024-.24-.074-.428h-.345c.049.134.074.321.074.455 0 .939-.419 2.011-1.16 2.011-.419 0-.764-.268-1.011-.724l-1.16-2.225c.79-1.153 1.16-3.404 1.234-5.442.148-3.7.74-3.378 2.072-3.726v-.376h-4.984v.376c1.949 0 2.567.858 2.567 3.512 0 2.707-.618 4.53-1.086 5.227l-4.145-8.82c1.407-.992 2.147-2.09 2.147-3.565zM99.341 6.3c-.764-1.421-1.283-2.788-1.283-3.726 0-1.206.617-1.877 1.604-1.877 1.061 0 1.653 1.126 1.653 2.413 0 1.233-.567 2.198-1.974 3.19zm-.246 13.216c-2.344 0-4.59-5.763-4.59-7.962 0-1.528.42-2.118 2.048-3.458.05.107.395.911.543 1.233l3.701 7.8c.247.51.247.564.641 1.18-.764.67-1.456 1.207-2.343 1.207zm32.201-18.202c-.74 0-2.763-.992-4.564-.992-1.949 0-4.022.83-5.675 2.252a10.207 10.207 0 00-3.553 7.774c0 5.308 4.195 9.892 9.228 9.892 2.936 0 4.144-1.636 5.625-1.636.394 0 .74.188.814.617h.444v-6.139h1.604v-.375h-7.624v.375h2.541v1.314c0 4.37-1.258 5.468-3.38 5.468-2.072 0-3.355-.67-4.169-2.198-.74-1.394-1.061-3.485-1.061-6.3V8.66c0-4.691 1.16-7.962 5.28-7.962 2.886 0 4.465 2.118 5.304 5.522h.37V.75h-.419c-.173.43-.296.564-.765.564zm18.98 3.94c0-2.949-2.467-4.584-6.119-4.584-1.184 0-2.861.08-3.75.08h-3.996v.376h2.269v18.336h-2.269v.376h8.116v-.376h-2.269V9.785h1.727c.962 0 1.801.348 2.319 1.126.543.777.839 2.198.863 4.262.025 2.037.37 3.324 1.012 4.021.666.724 1.603 1.046 2.837 1.046 1.308 0 1.974-.188 2.886-1.26l-.246-.241c-.37.402-.716.884-1.381.884-.568 0-.84-.241-.988-.697-.123-.482-.296-1.608-.394-3.404-.099-1.93-.296-2.976-.642-3.593a3.578 3.578 0 00-1.381-1.394c-.568-.348-1.752-.67-3.454-.991v-.135c3.084-.321 4.86-1.822 4.86-4.155zm-8.018-4.128c.419-.027.765-.08 1.061-.08 2.368 0 3.157 1.179 3.157 4.477 0 1.715-.271 2.573-.838 3.136-.494.482-1.234.75-2.591.75h-.789V1.126z"
        ></path>
        <path d="M154.807 19.462h-2.097v.376h4.688v-.376h-2.196l2.739-7.184h5.921l2.862 7.184h-2.295v.376h8.29v-.376h-2.122L162.825 0h-.666l-7.352 19.462zm6.02-14.878l2.912 7.319h-5.675l2.763-7.319zM173.034.75v.376h2.27v18.336h-2.27v.376h8.117v-.376h-2.27V1.126h2.27V.75h-8.117zm9.924 0v.376h2.269v18.336h-2.269v.376h4.934v-.376h-2.269V2.654h.049l11.102 17.184h.666V1.126h2.27V.75h-4.935v.375h2.27v12.386h-.049L188.78.75h-5.822zm-74.721 43.588c-1.211-.965-3.218-.372-5.009-.42-1.512-1.81-5.254-7.07-6.752-9.225l-.04-.038a28.694 28.694 0 00-1.79-2.246 33.358 33.358 0 003.449 1.616c.56.96 2.017 3.12 3.772 3.363 2.87.346 5.771-.237 8.327-1.677 0 0-3.223-2.564-6.052-3.044-2.23-.36-4.782.367-5.82.717a49.038 49.038 0 01-5.23-2.554c-1.8-1.758-4.033-2.93-6.436-3.373a.305.305 0 00-.244.055.36.36 0 00-.134.225c-.012.09.01.18.06.253a.3.3 0 00.213.13c2.572.415 4.871 1.923 6.884 3.987.595 1.52 1.316 3.917 1.27 5.265-1.008.414-4.034 1.848-5.043 4.39-1.634 4.052.681 8.217.681 8.217s3.58-2.586 5.114-5.673c1.22-2.43.504-5.744-.116-6.757.09-1.196-.358-2.915-.766-4.176a36.718 36.718 0 014.09 6.154.332.332 0 000 .183c.337 1.76.337 3.574 0 5.334-1.92 1.302-3.429 3.193-4.328 5.426a7.458 7.458 0 00-.227 4.232 7.086 7.086 0 002.098 3.596s2.613-5.032 4.131-7.478c.665-1.116-.626-4.505-1.07-5.582.288-1.337.365-2.715.228-4.079a65.465 65.465 0 013.53 8.62c-.56.955-1.917 3.627-1.322 6.214.742 3.232 5.931 6.061 5.931 6.061a50.979 50.979 0 01-.342-7.14c.115-2.65-2.557-4.59-3.617-5.253a68.804 68.804 0 00-3.475-8.195c.747 1.013 1.463 1.552 2.043 2.28 0 0 2.971 4.477 5.548 6.465 1.714 1.326 6.41.48 6.41.48.197-.194-1.866-3.114-5.966-6.353z"></path>
    </svg>