<svg viewBox="0 0 25 29" height="50px" fill="#000" xmlns="http://www.w3.org/2000/svg">
<path d="M19.6503 13.8863C18.5673 13.1012 16.7713 13.5837 15.1695 13.5442C13.8157 12.0705 10.4674 7.7898 9.12731 6.03543L9.09122 6.00472C8.5893 5.36917 8.0548 4.75874 7.48939 4.17579C8.49269 4.66876 9.52301 5.108 10.5757 5.49157C11.0767 6.27227 12.3808 8.03103 13.9511 8.22841C16.5191 8.51082 19.1149 8.03554 21.401 6.86436C21.401 6.86436 18.5177 4.77665 15.9862 4.38631C13.9917 4.09245 11.7084 4.68456 10.7789 4.96963C9.17969 4.36358 7.61746 3.66949 6.09947 2.8907C4.48987 1.45913 2.49161 0.506263 0.34158 0.145088C0.30401 0.138142 0.265331 0.138553 0.22776 0.146296C0.190375 0.15404 0.15484 0.168961 0.123192 0.190189C0.0917293 0.211417 0.0648943 0.238528 0.0443509 0.269942C0.0236224 0.301356 0.00974171 0.336443 0.00326406 0.373158C-0.00247329 0.409244 -0.000624065 0.44608 0.00862972 0.481466C0.0178835 0.516855 0.0343569 0.550068 0.0571212 0.579129C0.0797004 0.60819 0.108385 0.632503 0.140958 0.650616C0.173532 0.66873 0.209622 0.680275 0.246823 0.684561C2.54824 1.02228 4.60591 2.25035 6.40633 3.93017C6.93879 5.167 7.58415 7.11875 7.54343 8.21525C6.64101 8.55296 3.93353 9.71962 3.0311 11.7898C1.569 15.088 3.64019 18.4784 3.64019 18.4784C3.64019 18.4784 6.84403 16.3731 8.21581 13.86C9.30776 11.8819 8.66703 9.18455 8.11199 8.35998C8.19323 7.3863 7.79162 5.98718 7.4261 4.96086C8.82009 6.50356 10.0464 8.18205 11.0858 9.96962C11.0701 10.0182 11.0701 10.0702 11.0858 10.1188C11.388 11.5512 11.388 13.0284 11.0858 14.4608C9.36754 15.521 8.01815 17.0603 7.214 18.8775C6.78185 19.9778 6.71059 21.181 7.01042 22.3222C7.31024 23.4633 7.96615 24.4863 8.88819 25.2503C8.88819 25.2503 11.2255 21.1538 12.5838 19.1626C13.1795 18.2547 12.0243 15.4959 11.6271 14.6187C11.8844 13.5307 11.9529 12.4086 11.8302 11.2986C13.0611 13.5582 14.117 15.9039 14.9888 18.3161C14.488 19.0924 13.2743 21.2678 13.8068 23.373C14.4701 26.0046 19.1133 28.3073 19.1133 28.3073C18.8616 26.3803 18.759 24.4378 18.8064 22.496C18.9102 20.338 16.5187 18.7591 15.5711 18.2196C14.6901 15.9305 13.6515 13.7018 12.462 11.5486C13.1298 12.3731 13.7705 12.8117 14.2894 13.4038C14.2894 13.4038 16.9473 17.0486 19.2532 18.6669C20.7875 19.7459 24.9885 19.0572 24.9885 19.0572C25.1645 18.8994 23.3189 16.5222 19.6503 13.8863Z" fill="#000"/>
</svg>
